<?xml version="1.0" standalone="no"?>
<!DOCTYPE svg PUBLIC "-//W3C//DTD SVG 20010904//EN"
 "http://www.w3.org/TR/2001/REC-SVG-20010904/DTD/svg10.dtd">
<svg version="1.0" xmlns="http://www.w3.org/2000/svg"
 width="685.000000pt" height="685.000000pt" viewBox="0 0 685.000000 685.000000"
 preserveAspectRatio="xMidYMid meet">
<metadata>
Created by potrace 1.14, written by Peter Selinger 2001-2017
</metadata>
<g transform="translate(0.000000,685.000000) scale(0.100000,-0.100000)"
fill="#000000" stroke="none">
<path d="M3189 6606 c-2 -2 -33 -6 -69 -10 -117 -11 -173 -19 -260 -36 -30 -6
-68 -13 -85 -16 -245 -43 -673 -204 -885 -333 -19 -11 -42 -24 -50 -27 -47
-21 -311 -205 -405 -283 -510 -423 -865 -969 -1040 -1600 -25 -90 -33 -125
-55 -236 -14 -73 -19 -105 -26 -155 -3 -25 -7 -56 -10 -70 -23 -130 -22 -613
2 -735 2 -11 6 -43 9 -72 7 -75 41 -242 75 -368 271 -1021 1055 -1847 2065
-2175 122 -39 330 -91 420 -105 22 -3 47 -7 55 -10 15 -4 61 -10 160 -19 30
-4 78 -8 105 -11 59 -7 409 -7 445 -1 14 2 59 7 100 11 41 3 84 8 95 10 11 2
42 7 69 10 174 21 519 116 691 190 204 88 308 141 460 233 542 328 998 853
1244 1432 18 41 36 84 42 95 58 123 162 518 184 700 3 28 8 59 10 70 25 122
25 609 1 755 -3 14 -7 43 -10 65 -11 84 -23 149 -51 275 -49 224 -157 512
-274 735 -390 745 -1069 1308 -1866 1550 -104 31 -141 41 -230 61 -38 9 -120
25 -154 30 -18 3 -41 7 -50 9 -9 2 -44 6 -76 10 -33 4 -71 9 -85 12 -28 6
-545 14 -551 9z m419 -661 c50 -3 102 -8 115 -10 12 -2 40 -6 62 -10 257 -37
524 -122 760 -243 553 -282 988 -773 1203 -1357 72 -196 113 -377 141 -620 9
-69 7 -461 -2 -500 -4 -18 -8 -45 -23 -155 -28 -200 -135 -510 -256 -739 -72
-136 -228 -366 -308 -452 -213 -230 -370 -364 -580 -493 -278 -172 -616 -297
-925 -342 -22 -3 -51 -7 -64 -9 -162 -27 -517 -21 -701 11 -19 3 -48 8 -65 11
-60 9 -292 73 -360 98 -38 15 -74 28 -80 29 -53 14 -269 120 -371 181 -84 51
-255 171 -289 202 -11 10 -36 31 -55 47 -155 126 -336 333 -466 531 -199 304
-319 622 -378 1005 -20 124 -27 427 -14 565 41 434 180 817 426 1180 255 374
634 687 1057 873 84 37 275 105 327 117 13 2 69 16 125 29 133 31 192 39 363
51 58 4 106 8 107 9 3 3 164 -3 251 -9z"/>
<path d="M3300 5274 c-148 -21 -215 -39 -342 -95 -384 -166 -670 -515 -762
-930 -5 -25 -3 -27 42 -32 26 -4 61 -9 77 -12 17 -3 41 -8 55 -10 255 -44 518
-135 704 -243 95 -55 234 -164 310 -242 38 -39 72 -69 76 -68 4 2 45 38 91 81
95 89 225 180 342 239 83 41 277 120 277 112 0 -3 8 0 18 5 49 26 350 92 490
107 34 4 65 10 67 14 13 20 -73 290 -110 346 -8 13 -15 28 -15 34 0 17 -102
170 -157 235 -125 149 -258 254 -431 340 -87 43 -253 99 -326 110 -21 3 -49 8
-61 11 -44 11 -263 10 -345 -2z"/>
<path d="M1606 3973 c-1 -1 -60 -3 -131 -5 l-129 -3 -8 -30 c-4 -17 -10 -52
-13 -80 -3 -27 -8 -66 -11 -85 -9 -68 -12 -416 -4 -490 68 -614 366 -1140 850
-1501 58 -43 116 -84 130 -91 14 -6 39 -21 55 -33 46 -32 209 -110 315 -150
96 -37 280 -88 355 -99 23 -4 52 -9 65 -11 114 -23 520 -26 660 -6 700 100
1279 514 1595 1138 30 61 55 113 55 117 0 3 9 25 19 49 35 79 82 223 96 298 2
12 6 28 9 37 3 9 8 33 11 52 3 19 10 60 15 90 28 164 31 497 6 635 -2 11 -7
50 -11 88 -4 37 -10 68 -14 68 -50 10 -468 13 -616 4 -554 -32 -970 -148
-1269 -355 -106 -73 -105 -71 -64 -133 36 -53 69 -113 68 -122 -1 -9 32 -70
41 -75 20 -13 138 -323 153 -403 2 -12 11 -53 20 -92 40 -178 41 -224 2 -95
-142 475 -400 809 -786 1017 -170 91 -495 190 -716 218 -27 4 -56 8 -64 11 -9
2 -47 6 -85 9 -39 4 -83 8 -100 10 -61 8 -493 23 -499 18z"/>
</g>
</svg>
