<svg xmlns="http://www.w3.org/2000/svg" xmlns:xlink="http://www.w3.org/1999/xlink" width="1930.457" height="134.039" viewBox="0 0 1930.457 134.039">
  <defs>
    <filter id="Rectangle_2573" x="-714.781" y="-850.021" width="3178.675" height="1434.046" filterUnits="userSpaceOnUse">
      <feOffset dy="3" input="SourceAlpha"/>
      <feGaussianBlur stdDeviation="1.5" result="blur"/>
      <feFlood flood-opacity="0.161"/>
      <feComposite operator="in" in2="blur"/>
      <feComposite in="SourceGraphic"/>
    </filter>
    <filter id="Su_šešėliu" x="0" y="0" width="1930.457" height="134.039" filterUnits="userSpaceOnUse">
      <feOffset dy="3" input="SourceAlpha"/>
      <feGaussianBlur stdDeviation="1.5" result="blur-2"/>
      <feFlood flood-opacity="0.161"/>
      <feComposite operator="in" in2="blur-2"/>
      <feComposite in="SourceGraphic"/>
    </filter>
  </defs>
  <g transform="matrix(1, 0, 0, 1, 0, 0)" filter="url(#Su_šešėliu)">
    <path id="Su_šešėliu-2" data-name="Su šešėliu" d="M12559.755,7327H14479.5c-6.648,6.644-16.679,9.576-24.479,5.882-.646,11.809,6.363,11.329,11.854,13.3-3.7,10.348-13.755-2.321-17.515-6.536-30.654,8.857-56.763,35.965-92.585,37.107-2.179-.293-3.892,1.893-5.477,4.072-2.28,3.147-4.29,6.28-7.017,1.912-1.739.436-1.536,4.71-.165,4.864-6.863,2.321-16.558,1.968-26.868,1.646-19.558-.612-41.344-1.108-50.261,17.011-5.416-5.1,2.145-3.4-.879-12.256-3.625,5.3-8.083,5.469-12.373,5.631-5.007.184-9.78.356-12.733,8.676-7.331.98-14.6-.282-21.665-1.555-12.331-2.228-24.043-4.485-34.4,5.1-4.368-2.235-10.19-2.239-11.9-8.68-8.891,6.292-24.453,11.674-34.064.988-67.415,9.57-136.28,8.384-205.1,7.2-61.1-1.056-122.18-2.111-182.169,4.361-29.819-12.553-67.11-.357-95.977,2.693-3.234.338-6.329-.879-9.387-2.1-5.788-2.306-11.444-4.62-17.646,3.583-40.247-.462-90.319-9.342-125.285,4.06-17.7-8.857-36.548-6.765-55.633-4.661-9.556,1.052-19.171,2.111-28.734,1.8-11.719-.375-22.112-5.728-33.257-3.914-4.3.725-8.958,5.232-13.623,5.725-8.857.917-17.756-1.871-26.646-4.662-9.731-3.05-19.456-6.1-29.117-4.3-11.159,2.1-19.81,9.42-29.7,8.808-15.982-.973-34.4-4.5-53.431-6.363s-38.6-1.848-56.97,3.94c-5.112,1.619-10.171.2-15.137-1.229-4.29-1.232-8.508-2.468-12.636-1.754-4.9.833-9.9,7.475-14.92,8.143-7.632,1.025-16.467.049-25.474-.92-10.825-1.164-21.906-2.317-31.45.038-8.929,2.205-18.149-4.887-27.638-5.213-7.08-.255-14.029,1.209-20.764,2.659-12.479,2.693-24.22,5.345-34.718-3.035-21.223,13.176-55.1,9.95-81.682-2.464-1.276,1.675-2.092,4.24-2.79,7.062-9.936-4.861-20.024-2-30.027.853-9.436,2.693-18.792,5.379-27.878,1.589-3.29-.68-3.294,5.161-5.394,6.862-9.364-5.075-15.96-1.683-24.937,2.994-17.97-8.5-33.6-6.84-48.515-5.041-7.456.9-14.735,1.833-22.056,1.543a50.457,50.457,0,0,1-22.229-5.521c-11.133,11.933-23.419,11.295-35.646,10.66-6.047-.319-12.076-.635-17.947.567-4.853.984-9.6,10.194-14.4,11.25-4.579.958-7.351-4.79-11.678-5.488-1.739-.282-3.43.92-5.232,2.129-1.6,1.074-3.291,2.152-5.18,2.2-5.387.135-11.3-7.617-16.892-8.121-2.93-.289-5.646,1.476-8.3,3.242-2.442,1.623-4.827,3.241-7.28,3.249-6.065.049-11.493-7.734-16.917-8.121-7.224-.552-13.864,6.149-20.9,9.961a19.145,19.145,0,0,1-7.959,2.585Z" transform="translate(-12554.75 -7325)" fill="#fff" stroke="rgba(0,0,0,0)" stroke-width="1"/>
  </g>
</svg>
