<svg xmlns="http://www.w3.org/2000/svg" width="385" height="402" viewBox="0 0 385 402"><g><g clip-path="url(#clip-15bbc267-e16e-4bc1-82ce-e5f3b13f2108)"><path fill="#ffbe53" d="M348.366 281.523l-1.002 1.875-2.012 3.741c-1.298 2.515-2.82 4.906-4.263 7.335l-.54-.731.232-.654c1.375-2.143 2.775-4.28 4.012-6.51l2.065-3.59 1.027-1.803.951-1.841.452.264zm-61.372 65.629c-.006.005-.03.005-.061.003a10.908 10.908 0 0 1 1.718-1.894l.187.033c-.299.316-.59.643-.898.951l-.946.907zm-8.927 5.42c.24-.135.479-.268.72-.401l.052-.004c.621-.07 1.251-.148 1.893-.232-.736.495-1.484.973-2.22 1.465zm-54.273 36.448c-.65.42-1.236.848-1.756 1.284l-2.44-.078c-1.246-.056-2.406-.062-3.545-.16l-3.33-.273 2.476-.443 1.239-.22 1.228-.271c.428-.097.856-.196 1.283-.296.217-.011.434-.023.65-.039.039-.003.077-.06.115-.143a95.993 95.993 0 0 0 2.822-.718c1.421-.387 1.752-1.135 2.353-1.856.608-.704 1.461-1.46 3.952-1.862.499-.083 1.012-.212 1.533-.374l.772-.066c-2.857 2.251-4.986 4.039-7.352 5.515zm-26.218-7.85c-.667.587-1.404 1.177-2.25 1.663-3.32 1.964-7.878 1.422-8.464-.91-.475-1.832-1.69-3.19-4.912-4.112-1.714.438-3.01.767-4.002.965-.994.154-1.684.194-2.194.096-1.02-.197-1.32-.945-1.9-2.44a31.24 31.24 0 0 0-1.249-.163c-.43-.686-.876-1.477-1.488-2.34 4.317 1.275 7.175 1.35 8.83-.708.446-.56.585-1.345.491-2.19 1.356.033 2.778.226 4.31.651l-4.271 1.58c2.835 2.09 4.437 3.145 6.401 3.313 1.96.089 4.32-.682 8.67-2.267 1.726-.709 4.115-.979 6.147-1.445.32 1.162 1.209 2.02.65 2.745-.913 1.181-1.794 2.403-2.832 3.594-.134.002-.267 0-.4-.007l-.23.702c-.406.431-.838.857-1.307 1.273zm-15.648 2.174c-1.308-.598-2.606-1.18-4.19-1.94 3.875-.753 5.09-.026 4.19 1.94zm-.964 2.163c5.303-.836 4.886 1.351 6.315 2.37l6.187-.861c-.76.441-1.423.886-1.944 1.395a10.833 10.833 0 0 1-3.54 2.302c-.247.091-.498.172-.752.248a69.53 69.53 0 0 1-2.082.209c-1.439.123-2.897.21-4.363.284-1.01.071-2.024.104-3.04.124-.371-.036-.746-.076-1.123-.11l-2.56-.259c.12-.97.175-1.735.264-2.42.576-.053 1.175-.113 1.81-.181.963-.103 2.003-.213 3.144-.42a165.103 165.103 0 0 1-1.76-3.63c1.184.421 2.584 1.071 3.444.949zm-5.515-1.343c.074-.2.155-.397.244-.591.426.234.897.502 1.426.803l-1.67-.212zm-24.34-20.102c.77.222 1.543.44 2.318.65.112.36.274.684.482.98-1.198-.036-2.407-.093-3.573-.053l.772-1.577zm-27.824-8.238c1.213 2.185-1.045 2.448-3.631 2.36-.08-1.453-.157-2.965 3.63-2.36zm-1.237 6.527l-1.267-.329a10.738 10.738 0 0 1-1.211-.44c-.918-.41-1.756-.938-2.624-1.415l.234-.37 2.504.957 1.253.477c.417.159.847.285 1.27.429zm-17.103-7.617c-2.06-.776-4.11-1.562-6.16-2.384-1.252-.531-2.42-1.46-3.566-2.164l.591.033c2.636.794 5.34 1.267 7.963 1.644.42.066.843.123 1.265.175.673.389 1.26.731 1.773 1.035 1.137.628 1.93 1.065 2.498 1.454 1.142.77 1.413 1.283 1.965 2.311l-3.188-1.03c-1.058-.343-2.12-.667-3.14-1.074zM77.612 328.26c-1.11-.768-2.13-1.652-3.19-2.484l.583-.332c.955.787 1.873 1.621 2.875 2.35zm-10.943-9.006c-1.091-.691-2.206-1.353-3.236-2.1l-3.144-2.189-1.573-1.099-.787-.55-.756-.584.32-1.067c2.394.832 4.602 2.123 6.73 3.84a160.445 160.445 0 0 0 4.245 4.074 56.073 56.073 0 0 1 1.503 1.738l-3.302-2.063zm1.17 11.07l-1.73-2.342-1.63-2.423 1.634.014.753 1.18c.258.386.529.758.79 1.14a94.758 94.758 0 0 1 1.544 2.279c.042.064-.883.104-1.36.152zm-11.238-9.772c-.565-.36-1.101-.904-1.63-1.643a13.742 13.742 0 0 1-1.544-2.845l.876.613.865.55 1.674 1.06c1.115.7 2.276 1.43 3.705 2.33-1.564.64-2.813.655-3.946-.065zm-5.414-11.879l-.75-.928-1.496-1.855c-.991-1.241-2.006-2.464-2.976-3.72l-2.812-3.857-1.408-1.935c-.48-.638-.89-1.327-1.339-1.99l-.524-.8a6.86 6.86 0 0 0 2.43-.178 9.13 9.13 0 0 1 2.965-.261c.086.007.171.017.257.027 1.6 2.31 3.258 4.57 4.97 6.784.047.348.097.696.144 1.05.2 1.399.404 2.81.608 4.23.223 1.427.417 2.909.724 4.326zm-38.018-60.855h-.001v-.002zm8.633-97.974c.36.201.936.366 1.41.624.009-.504.006-.981 0-1.438.153-.083.307-.167.46-.246.817-.428 1.851-.816 2.675-.79a160.21 160.21 0 0 0-2.683 8.201c-.514-.91-.925-1.665-1.294-2.286-.481-.808-.886-1.39-1.268-1.796-.514-.546-.989-.771-1.555-.81.762-.511 1.51-1.003 2.255-1.459zm29.6-55.143l-.409.059-.777-.105c.544-.43 1.047-.83 1.542-1.22l.095.64-.451.626zm-3.98-13.796zm-2.529 1.315c.22-.715.268-1.652.71-2.099.6-.605 1.537-.925 2.226-1.126.128-.038-.215 1.031-.407 1.91l-2.529 1.315zm-2.525 9.794l-.754.758-.71.779-1.404 1.544-.764-.23c1.25-2.277 2.634-4.451 4.646-7.585.1-.021.2-.05.302-.084.456-.143.943-.408 1.466-.763.168 1.087.28 1.761.386 2.407l-3.168 3.174zM63.05 71.052l.148.166-.138.123a1.335 1.335 0 0 1-.106-.205zm7.8-4.25c.697-.594 1.392-1.193 2.103-1.772l2.198-1.66.175-.13-.108.313c-.28.823-.554 1.65-.826 2.484-.092.037-.186.074-.276.112-.33.15-.655.304-.98.467-2.566 1.289-3.638 2.322-3.476 3.654l-1.177-.789-2.37 3.563c-.134-.453-.342-.829-.578-.832a7.906 7.906 0 0 1-.405-.015 20.128 20.128 0 0 1 1.616-1.78A187.494 187.494 0 0 1 70.85 66.8zm8.081-20.051l.354-.524c.134-.07.269-.14.404-.207-.268.252-.52.496-.758.73zm160.9-32.961c.467-1.034.525-.997 2.68.842l-2.68-.842zm4.1 3.611c.744.072 1.407.254 1.695.537.506.502.9 1.059 1.247 1.648l-1.13.021c-.258-.09-.518-.177-.778-.261-.662-.187-1.328-.366-1.977-.579a71.374 71.374 0 0 0-1.661-.516 11.214 11.214 0 0 0-.348-.564c.25-.094.511-.168.788-.21.594-.093 1.416-.13 2.165-.076zm122.676 136.82c.574-.079 1.176-.492 2.01-1.283.274.922.577 1.966.904 3.157.34-2.04.577-3.452.656-4.616.526 1.005 1.213 1.971 1.358 2.993.067.487-.971 1.204-1.596 1.59-.439.272-.888.523-1.342.758-.383.091-.75.21-1.087.388-.207.11-.403.24-.587.397-.089.038-.177.077-.266.114-.692.288-1.34.61-1.905 1.033l-.283-1.732-.457-2.72-.232-1.36-.029-.132c1.333 1.005 2.061 1.524 2.856 1.414zm-.327-8.85c.114-1.031.252-2.148.32-3.413 1.728.374 3.037.668 4.79 1.106a322.938 322.938 0 0 1-1.537 4.995c-.293-1.185-.786-2.588-1.54-4.71-.965 1.426-1.452 2.127-1.275 3.71.045.485.167 1.049.352 1.74-.478-.165-.956-.328-1.448-.494l.338-2.934zm5.968-15.55l-.632 2.577-.801 2.806c-1.03-3.26-1.12-3.283 1.433-5.383zm.14-.215c-.589-2.723.698-3.498 1.995-4.271.195 2.344.04 4.307-1.996 4.27zM263.16 364.772l.32-.217-.19.183-.13.034zm-32.61 12.52c.989-.28 1.955-.473 2.88-.677.185-.043.368-.082.552-.121-.306.466-.748.908-1.353 1.33-1.97.48-3.154.78-4.333 1.043-1.072.237-2.142.43-4.11.817 2.278-1.082 4.382-1.849 6.364-2.393zm-18.324 3.308l-1.869-.095.705-.761c.346.25.729.534 1.164.856zM53.722 304.306c.427.432.871.848 1.32 1.26.643.757 1.294 1.506 1.95 2.251l-.166.666-1.806-1.61c-.299-.27-.606-.535-.9-.811l-.862-.847zm-31.775-42.292l.072.07-.037-.11c.212-.242.442-.49.694-.748.647-.657 1.031-1.36 1.162-2.206.202.348.418.687.66 1.012l-.337-.83-.275-.769c.014-.726-.129-1.552-.431-2.53-.44-1.56-.559-3.213-.524-4.878 1.308 2.394 1.956 5.168 3.014 7.734.501 1.29 1.045 2.544 1.72 3.687.338.571.708 1.115 1.122 1.62.402.455.846.875 1.33 1.257l.025.06-2.907 1.698.067 1.436c-1.69.91-3.421-.354-5.009-2.593a35.19 35.19 0 0 1-1.51-2.281c.268-.513.658-1.05 1.164-1.629zm192.09-243.347zm-.816.072l-1.392-1.504c.798-.007 1.734-.184 2.366.023.479.16.805.496 1.192.867l-1.492.041.141.501c-.278.02-.547.043-.815.072zm101.406 49.454a92.12 92.12 0 0 1-.361-.668l.99-.003c-.206.23-.415.455-.629.671zm2.506 2.311l-.217-.07c.062-.25.125-.501.187-.756.02.274.028.55.03.826zm51.528 96.162c.014 1.482.158 3.052.327 4.628.101.788.148 1.587.194 2.376-.623-.78-1.243-1.543-1.846-2.312.119-.32.283-.62.514-.89a47.854 47.854 0 0 0-1.804-1.427 21.179 21.179 0 0 0-.081-1.143l-.163-1.554c.347-.38.702-.68 1.085-.843.383.25.768.5 1.158.758.208.133.411.27.616.407zm.534 21.805zm-.624-1.659l-1.036-2.441-.763-1.756c.138-.325.271-.657.402-.991.631-1.617 1.217-3.285 2.142-4.51 0 .183 0 .366-.004.545-.049 1.972-.29 3.704-1.09 4.95 1.38 1.304 1.965 2.86 2.103 4.603-.38.426-.755.844-1.13 1.259l-.624-1.659zm-109.778 180.91l.263-.173-.033.032c-1.275 1.232-2.6 2.41-4.566 2.796l4.336-2.656zM127.045 45.257c.594.021 1.25.088 1.954.162.429.32.879.604 1.419.765l-1.053.44c-.363.155-.724.299-1.077.458l-1.038.497-3.955 1.897c-2.568 1.166-4.875 2.53-7.195 3.766a212.617 212.617 0 0 0-3.064-1.64c1.412-.89 2.994-1.885 4.763-2.998 1.764-1.161 3.8-2.255 6.05-3.517l3.196.17zm242.621 146.248l.254.46c-.108.481-.224.97-.346 1.469 0-.97-.078-1.774-.196-2.444l.288.515zM207.344 375.713l.178-.403c.069.123.153.241.254.356-.144.015-.287.03-.432.047zm164.991-242.905c1.945 2.558 1.828 4.205.754 5.805l-.754-5.805zM195.88 16.065c.102.214.238.41.417.58.502.487 1.327.737 2.614.826 1.064.059 1.923-.02 2.617-.267l.01.003c1.056.234 2.029.465 2.879.686.846.246 1.567.496 2.128.711-.77-.107-1.536-.23-2.308-.31l-2.317-.194-4.614-.337c-.768-.045-1.53-.122-2.297-.14-.767-.02-1.532-.042-2.297-.063-1.19-.034-2.374-.076-3.557-.124 1.3-.481 2.476-1.058 3.489-1.817.628.079 1.261.161 1.894.247.45.051.897.12 1.342.199zM15.347 250.405c1.08-.712 2.152-1.414 3.24-2.109 1.27 2.185 1.532 2.613.915 4.762a29.47 29.47 0 0 1-.482-2.018c-.68.86-1.354 1.45-2.02 1.634l-1.653-2.268zm359.456-61.492a7.773 7.773 0 0 0-.22-.556c.106-.173.222-.358.35-.56l-.13 1.116zm-.126-5.431a32.452 32.452 0 0 1-.037-1.893c-.01-.61-.014-1.199.011-1.767.095-2.273.537-4.21 1.418-5.698l-.67-1.867a40.93 40.93 0 0 0-.367-1.001l.199.148c-.114-1.213-.225-2.086-.303-2.77.255-.328.506-.655.76-.987l1.366-1.806c-.035.356-.061.716-.067 1.08-.047 2.311.48 4.78 1.584 7.454 2.089-1.214 3.872-2.771 4.193-6.168.554-1.055 1.035-2.08.845-2.83-.602-2.362-.801-4.497-.634-6.558.101-2.05.553-4.024 1.345-6.07-1.282.115-2.295.55-3.131 1.339-.8.753-1.414 1.876-2.215 2.954-1.488-3.964-.266-5.076 1.25-6.15.65-.458 1.275-.984 1.918-1.556l1.982-1.823c-3.6-3.097-3.585-3.024-4.804.731-.898 2.742-2.498 2.63-5.44-.104.575-1.972.856-2.974 1.637-3.919.78-.95 2.06-1.84 4.602-3.681-.949-.172-1.44-.31-1.928-.33-.477-.018-.937.082-1.673.158 1.565-3.293 1.558-3.32.768-6.18.586-1.359 1.148-2.69 1.753-4.157.562-1.453 1.158-3.04 1.849-4.942-2.762.032-4.59.077-6.396.129.547-1.38 1.116-2.792 1.974-5.136l-4.358 2.237c-.653.33-1.315.61-1.9.428-.597-.176-1.13-.805-1.531-2.306-.533-1.989-1.523-2.023-2.463-1.869-.874.142-1.651.623-2.426.937l-.68-1.112a11.862 11.862 0 0 0-.455-4.16 12.983 12.983 0 0 0-.36-1.065c-.143-.35-.317-.688-.498-1.028a15.02 15.02 0 0 0-1.293-1.984c-.989-1.288-2.228-2.497-3.698-3.58a330.27 330.27 0 0 1-3.1 3.545 124.64 124.64 0 0 1-2.38-4.718 76.157 76.157 0 0 1-2.507-5.23 57.24 57.24 0 0 1-1.072-2.67l-.981-2.695c-.715-2.054-1.747-4.846-4.703-5.846.423 2.07 1.39 4.253 2.514 6.459a111.63 111.63 0 0 1 3.27 6.68l-2.918-3.313c-.453-.528-.933-1.021-1.405-1.51l-1.403-1.454-1.528-.109 1.435 3.38c.46 1.118.857 2.251 1.266 3.33-1.294-.843-1.574-.93-1.66-1.09-.429-.83-.953-1.653-1.494-2.482-.722-2.86-1.515-5.201-1.995-6.764-.943-.532-1.86-1.048-2.76-1.557-.903-2.38-2.331-3.662-3.726-4.787-1.412-1.181-2.916-2.103-3.807-4.033-.25-.528-.338-1.03-.629-1.555-.726-1.286-1.432-2.608-2.213-3.873l-.97-1.542c-.864-2.568-1.852-4.95-3.206-7.126-1.51-2.303-3.51-4.305-6.192-6.05-.419.288-.707.645-.858 1.042l-.408-.374-1.66-1.518.619-2.151 1.737 2.585c.528-1.657-.145-2.564-1.812-2.622-.07-.896.225-2.145-.285-2.655-.47-.47-.864-.917-1.188-1.345-.328-.422-.602-.808-.801-1.19-.403-.759-.544-1.461-.47-2.128.022-.193.063-.383.12-.57.367.048.742.083 1.126.105-.088-.558-.167-1.114-.249-1.67.441-.54 1.01-1.068 1.677-1.6-.696.014-1.328.029-1.92.044a25.33 25.33 0 0 0-.463-2.173c-.268-1.019-.84-2.156-1.561-3.18a24.386 24.386 0 0 0-1.137-1.504 9.988 9.988 0 0 0-1.126-1.136c-.754-.65-1.52-1.105-2.388-1.392-1.74-.563-3.864-.511-7.117.09 1.1 2.12 2.116 3.992 3.184 5.519a21.166 21.166 0 0 0 3.28 3.776c.85.787 1.742 1.416 2.691 1.904.749 2.703 1.426 5.261 1.987 7.779.105.455.212.994.233 1.479a33.422 33.422 0 0 1-1.797-1.881 28.686 28.686 0 0 1-2.38-2.87c-.049-.068-.094-.137-.142-.205l.98-1.183c-.202-.058-.402-.119-.6-.18.135-.416.193-.883.043-1.163-.548-1.084-1.734-2.404-2.775-2.797-.271-.101-.544-.19-.82-.27a31.423 31.423 0 0 1-.042-.085 46.638 46.638 0 0 1-1.768-.772c-.046-.572-.202-1.358-.42-2.43-1.484-.06-2.048.446-2.318 1.157-1.083-.498-2.083-.932-2.853-1.171.5-2.544.287-2.627-3.926-4.018l3.395 3.877c-.386-.08-.677-.077-.839.037-2.497 1.744-4.907-.938-7.881-3.315-.725-.602-1.499-1.135-2.255-1.7l-2.3-1.66c-.771-.55-1.55-1.091-2.336-1.622l-1.185-.787c-.4-.253-.815-.485-1.225-.722-2.714-1.55-4.61-2.861-5.802-4.15-.592-.655-1.027-1.265-1.295-1.904a4.346 4.346 0 0 1-.32-2.02c.056-.814.89-1.308 1.364-1.938l-5.681-2.671c-.933-.453-1.904-.853-2.906-1.268l-1.046-.434a229.18 229.18 0 0 0-.863-2.643l-2.768-.525 2.195-1.41.094-.014-.011-.04-.118.06-1.469-2.206c-.674.087-1.34.147-2.361.321l-.703-2.743c-1.832.076-3.529.39-5.258.182a14.05 14.05 0 0 1-1.416-.251c-.481-.103-.978-.205-1.489-.33-1.023-.246-2.114-.539-3.326-.804a240.852 240.852 0 0 0-4.393 2.499l2.872 1.178c-.116.646-.803 1.154-1.417 1.681-.654-.285-1.46-.561-2.49-.865-.719-.2-1.53-.458-2.497-.658l-1.352-.287a55.399 55.399 0 0 0-1.19-.774l-2.692.718-1.259.341-1.19.373-.014.097c-1.16-1.153-2.868-1.761-4.437-1.773-.785-.006-1.535.138-2.165.436a3.367 3.367 0 0 0-.99.735 128.102 128.102 0 0 0-3.862-.709 15.585 15.585 0 0 0-2.566-1.95c2.81-.976 4.568-2.519 4.976-5.004.069-.423.39-.82.66-1.354-2.803-.979-5.844-1.714-8.332-2.92-.678-.34-1.36-.592-2.045-.818a21.716 21.716 0 0 0-2.058-.567 21.021 21.021 0 0 0-4.13-.502c-2.75-.11-5.48.542-8.127 1.611-1.702.694-3.284 1.489-4.899 2.357l-2.962 1.757c-.334-.037-.668-.074-1-.106a76.652 76.652 0 0 0-5.43-.324c-.449-.007-.896-.025-1.342-.015l-1.335.054c-.296.015-.59.033-.886.05l-4.632-.792c-.575.454-1.167.907-1.763 1.38l-.626.076c-3.475.564-6.918 1.314-10.377 2.14l-5.189 1.48-2.622.763-1.32.384c-.441.13-.878.289-1.32.432l1.174.106 1.144.12c.751.068 1.48.114 2.19.14 1.421.05 2.77.02 4.076-.08 2.608-.248 5.083-.546 7.624-1.082a31.7 31.7 0 0 1 2.654-.435l.046-.005 1.729.874c-.185 1.437-1.412 2.598-2.668 3.747l-1.54.347.432.69c-.42.414-.804.837-1.11 1.28l-2.878.395c-1.106.134-2.199.359-3.294.562l-3.28.617-3.275.618c-.096.018-.192.04-.288.058-.652-.723-1.61-1.23-3.524-1.17-2.12.077-4.023.475-5.744 1.203-1.711.761-3.267 1.773-4.757 2.933l-.068.053c-.797-.027-1.58-.2-2.328-.61-1.977-1.177-8.72.916-11.151 3.22-1.506 1.468-3.257 2.601-5.22 3.502-.98.456-2.008.866-3.074 1.26-.988.367-1.988.786-3.017 1.185-1.434-.61-3.63-1.522-5.786-2.373-.719.401-1.115.66-1.524.881a86.176 86.176 0 0 0-7.301 4.243c-2.224 1.534-4.32 3.227-6.31 4.995-6.894 1.022-12.764 3.96-17.432 8.428.452-.77.932-1.578 1.444-2.456-2.384 1.376-4.823 1.527-6.9 2.308-2.094.749-3.934 2.02-5.048 5.42 2.414.584 4.353 1.078 6.737 1.72.63-1.204 1.232-2.353 1.85-3.53.285.087.596.099.932.047.678-.109 1.455-.475 2.341-.934.989-.53 2.08-1.233 3.234-1.942l-.713 1.085.695.143c-.639.64-1.188 1.13-1.766 1.44A72.451 72.451 0 0 0 59.99 61.417l-1.89.814.266.789c-.43.437-.854.88-1.272 1.326-.824-.351-1.702-.457-2.71-.295-.995.16-2.117.58-3.436 1.28-.66.35-1.37.77-2.137 1.262-.752.506-1.541 1.105-2.405 1.773.276 1.579.57 3.181.937 5.051-2.672 1.93-3.95.826-5.166-.207-1.214-1.026-2.402-2-4.824.5a302.534 302.534 0 0 0 3.426 6.13c.85-.282 1.708-.573 2.57-.862l-.022.022a31.386 31.386 0 0 0-1.83 2.007c-.57.691-1.068 1.431-1.563 2.162-.98 1.471-1.865 2.98-2.723 4.493l-.638 1.136-.594 1.166c-.398.777-.797 1.55-1.21 2.319-.825 1.56-1.699 3.088-2.528 4.703l-2.483 5.055c1.591-.677 3.34-1.639 4.834-1.957a11.233 11.233 0 0 0 2.127-.671c.71-.287 1.408-.66 2.108-1.152 1.403-.98 2.791-2.44 4.345-4.591 4.076-5.331 8.708-10.313 13.17-14.627 1.894.128 2.985.218 3.85.29.518-.761.974-1.533 1.453-2.247.254.092.507.19.757.299.433.184 2.108-1.2 3.269-2.332l.363.396.987-.491a54.293 54.293 0 0 1-3.503 3.498c-.345.305-.687.619-1.023.946a52.084 52.084 0 0 1-2.139 1.91 74.541 74.541 0 0 0-2.991 2.68c-.973.932-1.87 1.95-2.793 2.95l-.436.488c-.985-.28-2.086-.458-3.263-.598.153 1.263.31 2.49.48 3.745-.706.848-1.384 1.716-2.086 2.558-.375.458-.546 1.074-.848 2.009l-.191.03.092.271c-.068.204-.142.42-.226.654a3.022 3.022 0 0 1-.477.725c-.546.583-1.377.788-2.409 1.338l2.646 1.589-.817 1.255-2.12-3.142c-.769 1.252-1.637 2.456-2.32 3.484-.308.462-.578.888-.782 1.267l.068-.679-2.35.747c.375.595.517 1.116.863 1.27.255.114.646-.018 1.018-.114-.007.318-.029.629-.064.934-.332.154-.585.35-.788.633-.252.35-.43.832-.594 1.524-.16.664-.311 1.525-.445 2.673-.259.405-.537.804-.833 1.199-.297.434-.61.865-.939 1.294-.467.61-.963 1.218-1.47 1.83l-.436-.615c-.032.448-.051.848-.06 1.208l-.091.11c.027.147.056.289.087.424.001.238.008.454.019.645.034.58.12.959.298 1.2.358.48 1.094.404 2.554.273l-.565-.758c.582-.424 1.294-1.186 2.171-2.372.32-.431.824-.985 1.272-1.407.468-.408.868-.693.941-.618.623.637 1.27.634 1.899.286a161.39 161.39 0 0 0-11.58 20.246 14.528 14.528 0 0 1-.015-.617c-.995.458-1.919.957-2.887 1.448l.082 1.209 2.269-.878a160.81 160.81 0 0 0-4.454 10.419 3.408 3.408 0 0 1-.265-.383c-.319-.537-.513-1.19-.665-2.1a29.907 29.907 0 0 1-.345-3.617 16.904 16.904 0 0 0-.9-4.606c.275-.893.49-1.738.636-2.531.253-1.384.38-2.585.194-3.638-.348-2.096-1.734-3.549-4.535-4.14-.724 1.967-1.427 3.57-1.894 5.227-.453 1.78-.198 3.503-.05 5.223-.156.273-.316.563-.479.872-1.145 2.077-2.092 4.237-3.347 6.908.929-.131 1.826-.257 2.845-.391.052.13.108.245.164.33.547.823.976 1.7 1.312 2.639l-1.96 3.06c-1.243 1.977-3.003 3.919-1.083 5.75.462-.305.915-.61 1.363-.913.337 1.136.666 2.258 1.027 3.372.052.3.138.54.252.73l1.095 3.143-2.746 2.461c.078.629.184 1.231.313 1.804-.203.446-.402.941-.603 1.497-.51 1.496-.955 3.444-1.592 6.04.468-.174 1.027-.131 1.262-.504a30.647 30.647 0 0 1 2.45-3.387c.156.203.324.389.504.557a159.252 159.252 0 0 0-3.555 27.286c-1.252 1.78-2.017 3.81-.15 7.382.022 6.93.5 13.927 1.448 20.954a.543.543 0 0 0-.378.133c-.034.032-.067.059-.101.088l-1.496-2.235c-.498-.768-.91-1.48-1.348-2.196l-1.023.47-.084 1.486c-.023.51-.016 1.038-.025 1.61l-.012 1.468c-1.158-.442-2.3-1.21-3.42-1.726v.002c-.046-.39-.09-.781-.134-1.18l-.596-7.812c.957-.221 2.455-.67 3.98-.872.85-.112 1.584-.45 2.097-1.078.516-.63.781-1.547.628-2.837-.29-2.451-1.654-2.323-3.18-1.698-1.082.446-3.372-.052-3.48-.717-.255-1.549-.703-2.735-1.27-3.72-.534-.983-1.18-1.762-1.883-2.492-1.4-1.46-2.994-2.713-4.114-5.024a524.086 524.086 0 0 0-2.715 6.174c.976 1.308 2.02 2.532 3.013 3.73 1 1.197 1.994 2.366 3.02 3.556l-.52 2.377c-.179.808-.362 1.63-.49 2.46l-.85 5.053c2.193 1.328 3.34 2.159 3.71 3.374.41 1.212.083 2.792-.703 5.632-.26.948-.483 1.93-.742 2.992 1.196 1.329 2.284 2.393 3.448 3.555a171.173 171.173 0 0 1 3.217-3.3c1.805.509 3.144 1.608 4.21 3.099.663.892 1.25 1.926 1.789 3.057-.58-.35-1.16-.704-1.742-1.062l-.295 1.342c1.035.748 2.042 1.49 3.094 2.207l.119.306c.079.209.178.408.288.612-.281-.153-.6-.327-.99-.542l.38 1.426a10.36 10.36 0 0 1-1.709.175c-1.001-1.854-2.184-3.513-3.342-5.347-1.048 2.14-.187 4.328.43 6.4-.344.497-.546 1.167-.612 2.008-.382-.008-.78-.047-1.109.054-.33.102-.591.35-.684.926-.07.556.032 1.423.396 2.762.743.298 1.297.36 1.686.155.084.768.166 1.536.297 2.294-.362-.229-.759-.41-1.135-.622a4.155 4.155 0 0 1-.372-.244 23.222 23.222 0 0 1-.56-1.615l.11.13-.026-.098-.057-.022-1.081-1.55-.582-.845-.54-.857a87.493 87.493 0 0 0-2.195-3.348c-1.609-2.303-3.49-4.307-4.47-1.568-.462 1.299-.785 2.83-1.064 4.435l-.398 2.447-.195 1.228-.159 1.202c1.363.88 1.857.335 2.453.132.569-.193 1.082-.268 1.555-.208.093.905.17 1.835.286 2.747.235 1.452.548 2.865 1.12 4.063 1.552 3.218 1.62 5.023.347 7.16-1.102 1.804-.52 4.074 1.34 5.936a52.969 52.969 0 0 0 1.933 1.844l2.063 1.783.676 4.31c.236 1.469.457 2.972.784 4.437 1.21-.72 1.531-1.691 1.805-2.733.388-1.405.993-2.314 1.738-2.716 1.132 2.494 2.275 4.993 3.645 7.352 2 3.784 4.529 7.213 7.448 10.085.32.33.637.977 1.057 1.628l-.22 1.697 3.45 4.627 3.574 4.325 1.751 2.129 1.821 2.047a274.725 274.725 0 0 1 3.573 4.104 232.125 232.125 0 0 0 8.466 8.994l.171.76.734 3.201c.606-.616 1.108-1.15 1.39-1.688a188.455 188.455 0 0 0 10.273 9.33c3.423 2.987 6.853 5.49 8.644 9.34.965 1.89 2.333 3.822 4.18 5.686.464.463.953.928 1.48 1.375.54.429 1.112.85 1.716 1.26 1.209.82 2.548 1.599 4.024 2.316.549.262 1.084.59 1.638.933.559.332 1.122.702 1.7 1.095 1.152.786 2.358 1.664 3.68 2.513 2.151-.443 4.366-1.027 6.761-1.678 1.27.814 2.695 1.791 4.323 2.595 1.66.734 3.525 1.286 5.598 1.313.79.004 1.844.365 2.99.782 1.154.395 2.383.89 3.474 1.27 1.318.465 2.638.93 3.958 1.397l4.014 1.234 4.015 1.204c1.356.336 2.714.656 4.071.962 1.065.24 2.178-.352 3.434-.6l-5.218-2.865-1.233-.682-1.215-.742-2.476-1.526 3.923-.144c1.144-.05 2.148-.141 3.012-.173.412-.019.793-.032 1.15-.038.733.451 1.203.772 1.709.923.265.079.646-.405.973-.634a4.752 4.752 0 0 1-.2-.172c.074.011.147.023.218.037.904.163 1.492.498 1.975.963.483.467.848 1.117 1.291 1.975l1.36.303c.782.82 1.651.875 2.77.617l1.26.281c.98.2 1.955.369 2.93.534a8.14 8.14 0 0 0-.847.256c-.86.29-1.653.735-2.352 1.423l1.695.487 1.532.345c.704.153 1.345.283 1.928.39l-.525.115 3.081 2.337c.561-.122 1.128-.299 1.689-.451a46.186 46.186 0 0 1-2.1-1.697c.723.061 1.31.052 1.784-.034 1.166-.205 1.663-.894 1.91-2.101.69.395 1.51.709 2.417.978.724 1.15 2.283 2.25 4.899 3.78.736-.823 1.6-1.632 2.242-2.492.962.141 1.912.303 2.824.51.026.242.072.505.142.793-1.796.674-3.29 1.225-5.195 1.916 1.947.336 3.79.319 5.57.152.097-.007.195-.02.293-.03.155.402.332.835.53 1.303-1.818.568-3.197 1.212-4.77 1.415-.77.1-1.463.25-2.094.448-.63.19-1.192.398-1.713.671a8.15 8.15 0 0 0-.784.465c-.42.061-.84.121-1.263.191-1.593.248-3.207.51-4.886.716 1.086.514 2.626.894 3.718 1.322-1.22 1.148-2.586 1.722-3.995 1.72l-.974-.087c-.752-.143-1.5-.48-2.233-.984-.88-.601-1.741-1.436-2.547-2.504-.939-1.243-2.137-2.136-3.351-2.644-1.202-.55-2.415-.738-3.407-.475-2.137.563-3.593 2.636-4.316 4.425-.681 1.668 1.305 3.18 4.164 4.19.917.346 1.818.645 2.66 1.035.845.38 1.646.805 2.406 1.27a21.624 21.624 0 0 1 4.06 3.216c-2.308 1.99-3.463 3.006-3.176 4.071.143.533.642 1.075 1.53 1.75.896.64 2.187 1.385 3.909 2.372 2.497 1.41 5.124 2.52 7.892 3.124a50.2 50.2 0 0 0 4.205.802c1.424.2 2.858.412 4.327.452 4.33.177 8.677.678 12.935.369a27.642 27.642 0 0 0 3.742-.443c1.214-.245 2.347-.54 3.267-1.04a34.09 34.09 0 0 0 4.235-2.586c3.938-1.317 5.012-2.058 3.226-2.785 1.234-1.3 2.23-2.681 2.634-4.27.311-1.205.274-2.49-.24-3.912l1.178-.224 3.3-.632c2.147 1.043 3.655 1.764 5.155 2.385-1 .858-1.407 1.572-1.417 2.173-.008.61.384 1.14.968 1.616 1.167.964 3.12 1.781 4.138 2.943l3.77-.784 1.917-.403 1.959-.502.642-.167c-1.016 1.742-.908 3.545.623 5.312 1.048 1.211 3.538 2.696 5.367 2.531 1.976-.13 4.632-2.08 5.495-3.492 1.123-1.832.688-3.878 1.116-5.831.38-1.748.675-3.69 1.6-5.35.932-1.628 2.45-3.121 5.338-3.885a43.703 43.703 0 0 0 4.682-1.586c1.536-.655 3.06-1.325 4.578-1.876a26.73 26.73 0 0 1 2.275-.721 32.89 32.89 0 0 1 2.265-.488c1.502-.25 3.015-.25 4.566.127 1.138-1.306 2.206-2.473 3.183-3.654a86.48 86.48 0 0 0 2.71-3.51c.452-.623.811-1.237 1.053-1.836l.269-.106c.87-.355 1.734-.752 2.592-1.17.617.843 2.366 1.3 3.823 1.471 1.509.18 3.41-.34 5.802-.648-.35-2.113-.665-3.886-.972-5.552.441-.245.88-.494 1.312-.75 1.864-1.14 3.687-2.32 5.354-3.605l1.606-1.218 1.582-1.267 3.204-2.507 1.614-1.246.806-.623.782-.655a281.13 281.13 0 0 0 3.095-2.644c1.022-.888 2.03-1.783 3.017-2.691a88.72 88.72 0 0 0 2.779-2.887c1.79-1.96 3.495-3.942 4.856-6.153 1.45-2.21 2.82-4.524 4.233-6.828l1.088.245c.148-.974.248-1.785.327-2.513.574-.901 1.162-1.794 1.77-2.674l.334-.315c.368 1.25 1.077 2.346 2.408 3.177.491.305.595 1.316.49 2.085-.123.916-.309 1.85-.52 2.803-.206.96-.49 1.883-.733 2.862l2.05-.751 1.92-.796 3.83-1.61-3.187-3.285a76.09 76.09 0 0 0 6.588-4.09 66.474 66.474 0 0 0 2.706-2.016c.864-.694 1.685-1.436 2.535-2.146-.035-.124-.074-.246-.094-.377-.364-2.414-.794-4.75-1.998-6.144-1.008-1.172-2.562-1.68-5.022-1.086.071-.119.133-.236.19-.352a169.18 169.18 0 0 0 4.324-5.21l.385.127c1.037-1.409 2.116-2.792 3.116-4.23l2.946-4.355.39.045.006.009-1.684 3.617c-.314.663-.637 1.38-1.018 2.15l-1.307 2.503c2.308-2.492 3.333-3.832 4.376-5.076-1.417 3.328-3.066 6.455-5.439 11.14 2.547-2.716 4.043-4.112 5.332-5.767.584-.724 1.107-1.489 1.65-2.243l1.618-2.271 1.611-2.283c.536-.763 1.08-1.523 1.567-2.318 1-1.575 1.99-3.16 2.964-4.758.483-.801.98-1.597 1.44-2.412l.674-1.266.588.22.762-1.879h-.477c.465-.914.902-1.847 1.318-2.792.473-1.102.969-2.195 1.36-3.336.824-2.265 1.633-4.53 2.603-6.71l4.103-9.858 1.883-5.004c.506-1.363 1.031-2.722 1.485-4.105.234-.318.475-.63.726-.929.686-.812 1.443-1.552 2.205-2.243 1.48-1.301 2.508-2.682 3.035-4.236a7.828 7.828 0 0 0 .41-2.472c-.013-.88-.19-1.824-.488-2.826l-.018-.059c.414-1.574.832-3.13 1.308-4.573.382.434.902.915 1.453 1.622.125-.519.24-.958.343-1.336l.227-.977c.123-.549.187-.918.155-1.245-.094-.955-.327-1.863-.617-2.701.177-.8.199-1.629.142-2.463.525-1.7 1.246-3.068 2.482-3.62.16-.07.38-.62.574-1.303l.107-.102-.072-.025c.183-.673.338-1.448.388-2.012.12-1.453.345-2.904.501-4.367.142-1.464.292-2.933.393-4.401a44.36 44.36 0 0 0 .111-3.814c.299-.362.571-.78.778-1.28.348-.828.588-1.882.668-3.28-.667.2-1.303.388-1.923.57-.067-.313-.14-.624-.22-.935-.191-.73-.04-2.197.255-3.767.09-.492.2-.992.313-1.484l.734.214c-.161-.635-.27-1.272-.343-1.908.106-.438.214-.842.32-1.193.574-1.901 1.877-2.425 2.75-3.925.33-.57.62-1.276.938-2.13.314-.853.683-1.855 1.065-3.011a258.005 258.005 0 0 0-5.472-2.607 46.8 46.8 0 0 1-.375-3.97"/></g></g></svg>